<svg width="295" height="535" viewBox="0 0 295 535" fill="none" xmlns="http://www.w3.org/2000/svg">
<g filter="url(#filter0_iii_42_526)">
<rect x="2" y="2" width="290.61" height="530.044" rx="32" fill="url(#paint0_linear_42_526)"/>
</g>
<rect x="1" y="1" width="292.61" height="532.044" rx="33" stroke="black" stroke-width="2"/>
<path d="M35.5867 356.832L35.6077 356.85L35.6296 356.867L49.9471 367.885C53.0941 370.307 56.9536 371.62 60.9245 371.62H255.505C265.446 371.62 273.505 363.561 273.505 353.62V100.058C273.505 90.1166 265.446 82.0577 255.505 82.0577H128.668C123.688 82.0577 118.93 84.1214 115.526 87.7578L104.677 99.35C101.652 102.582 97.4225 104.417 92.9953 104.417H36.3634C26.4223 104.417 18.3634 112.476 18.3634 122.417V333.739C18.3634 338.976 20.6447 343.954 24.6121 347.373L35.5867 356.832Z" fill="#D8DBD0" stroke="black" stroke-width="2"/>
<g filter="url(#filter1_d_42_526)">
<ellipse cx="58.5161" cy="344.244" rx="10.8007" ry="10.293" fill="url(#paint1_radial_42_526)"/>
<path d="M68.3168 344.244C68.3168 349.331 63.9748 353.537 58.5161 353.537C53.0574 353.537 48.7154 349.331 48.7154 344.244C48.7154 339.156 53.0574 334.951 58.5161 334.951C63.9748 334.951 68.3168 339.156 68.3168 344.244Z" stroke="black" stroke-width="2"/>
</g>
<path d="M139.871 117.797C139.871 119.331 138.552 120.657 136.821 120.657C135.091 120.657 133.771 119.331 133.771 117.797C133.771 116.262 135.091 114.937 136.821 114.937C138.552 114.937 139.871 116.262 139.871 117.797Z" fill="url(#paint2_radial_42_526)" stroke="black" stroke-width="2"/>
<path d="M158.773 117.797C158.773 119.331 157.453 120.657 155.722 120.657C153.992 120.657 152.672 119.331 152.672 117.797C152.672 116.262 153.992 114.937 155.722 114.937C157.453 114.937 158.773 116.262 158.773 117.797Z" fill="url(#paint3_radial_42_526)" stroke="black" stroke-width="2"/>
<g filter="url(#filter2_d_42_526)">
<circle cx="62.7932" cy="54.4302" r="35.0607" fill="#D9D9D9"/>
<circle cx="62.7932" cy="54.4302" r="36.0607" stroke="#272727" stroke-width="2"/>
</g>
<path d="M63.115 85.3444C80.0107 85.3444 93.7075 71.6477 93.7075 54.7519C93.7075 37.8561 80.0107 24.1594 63.115 24.1594C46.2192 24.1594 32.5225 37.8561 32.5225 54.7519C32.5225 71.6477 46.2192 85.3444 63.115 85.3444Z" fill="url(#paint4_radial_42_526)" stroke="black" stroke-width="2"/>
<circle cx="119.168" cy="34.8934" r="7.44737" fill="url(#paint5_radial_42_526)" stroke="black" stroke-width="2"/>
<circle cx="144.062" cy="34.8934" r="7.44737" fill="url(#paint6_radial_42_526)" stroke="black" stroke-width="2"/>
<circle cx="168.957" cy="34.8934" r="7.44737" fill="url(#paint7_radial_42_526)" stroke="black" stroke-width="2"/>
<line x1="245.173" y1="335.594" x2="213.007" y2="335.594" stroke="#999999" stroke-width="2"/>
<line x1="245.173" y1="342.905" x2="213.007" y2="342.905" stroke="#999999" stroke-width="2"/>
<line x1="245.173" y1="350.216" x2="213.007" y2="350.216" stroke="#999999" stroke-width="2"/>
<line x1="245.173" y1="357.527" x2="213.007" y2="357.527" stroke="#999999" stroke-width="2"/>
<g filter="url(#filter3_dii_42_526)">
<path d="M66.6458 389.03H46.2032V411.183H25.7606V432.344H46.8227V454.497H66.6458V432.344H87.7079V411.183H66.6458V389.03Z" fill="url(#paint8_linear_42_526)"/>
<path d="M46.2032 412.183H47.2032V411.183V390.03H65.6458V411.183V412.183H66.6458H86.7079V431.344H66.6458H65.6458V432.344V453.497H47.8227V432.344V431.344H46.8227H26.7606V412.183H46.2032Z" stroke="black" stroke-width="2"/>
</g>
<circle cx="57.1256" cy="421.283" r="7.79934" fill="url(#paint9_radial_42_526)" stroke="black" stroke-width="2"/>
<g filter="url(#filter4_dii_42_526)">
<circle cx="179.705" cy="431.264" r="20.4145" transform="rotate(33.2629 179.705 431.264)" fill="url(#paint10_linear_42_526)"/>
<circle cx="179.705" cy="431.264" r="19.4145" transform="rotate(33.2629 179.705 431.264)" stroke="black" stroke-width="2"/>
</g>
<g filter="url(#filter5_dii_42_526)">
<circle cx="244.238" cy="412.264" r="20.4145" transform="rotate(33.2629 244.238 412.264)" fill="url(#paint11_linear_42_526)"/>
<circle cx="244.238" cy="412.264" r="19.4145" transform="rotate(33.2629 244.238 412.264)" stroke="black" stroke-width="2"/>
</g>
<g filter="url(#filter6_ddi_42_526)">
<rect x="25.7606" y="471.031" width="199.744" height="38" rx="19" fill="#8BA058" shape-rendering="crispEdges"/>
<rect x="24.7606" y="470.031" width="201.744" height="40" rx="20" stroke="black" stroke-width="2" shape-rendering="crispEdges"/>
<path d="M80.1328 495.281V493.531H78.3828V491.781H76.6328V486.531H78.3828V484.781H80.1328V483.031H87.1328V484.781H88.8828V486.531H85.3828V484.781H81.8828V486.531H80.1328V491.781H81.8828V493.531H85.3828V491.781H88.8828V493.531H87.1328V495.281H80.1328ZM92.3828 495.281V493.531H90.6328V488.281H92.3828V486.531H101.133V488.281H102.883V493.531H101.133V495.281H92.3828ZM94.1328 493.531H99.3828V488.281H94.1328V493.531ZM106.383 495.281V493.531H104.633V488.281H106.383V486.531H113.383V483.031H116.883V495.281H106.383ZM108.133 493.531H113.383V488.281H108.133V493.531ZM127.383 484.781H125.633V483.031H127.383V484.781ZM130.883 488.281V491.781H122.133V493.531H129.133V495.281H120.383V493.531H118.633V488.281H120.383V486.531H123.883V484.781H125.633V486.531H129.133V488.281H130.883ZM127.383 488.281H122.133V490.031H127.383V488.281ZM134.383 495.281V493.531H132.633V488.281H134.383V486.531H141.383V483.031H144.883V495.281H134.383ZM136.133 493.531H141.383V488.281H136.133V493.531ZM148.383 495.281V493.531H146.633V488.281H148.383V486.531H157.133V488.281H158.883V491.781H150.133V493.531H157.133V495.281H148.383ZM150.133 490.031H155.383V488.281H150.133V490.031ZM160.633 495.281V493.531H162.383V491.781H164.133V490.031H162.383V488.281H160.633V486.531H164.133V488.281H165.883V490.031H167.633V488.281H169.383V486.531H172.883V488.281H171.133V490.031H169.383V491.781H171.133V493.531H172.883V495.281H169.383V493.531H167.633V491.781H165.883V493.531H164.133V495.281H160.633Z" fill="#373F25"/>
</g>
<rect x="242.505" y="511.531" width="43" height="9" rx="4.5" transform="rotate(-90 242.505 511.531)" fill="url(#paint12_radial_42_526)" stroke="black" stroke-width="2"/>
<rect x="261.505" y="511.531" width="43" height="10" rx="5" transform="rotate(-90 261.505 511.531)" fill="url(#paint13_radial_42_526)" stroke="black" stroke-width="2"/>
<defs>
<filter id="filter0_iii_42_526" x="-12" y="-8" width="306.61" height="542.044" filterUnits="userSpaceOnUse" color-interpolation-filters="sRGB">
<feFlood flood-opacity="0" result="BackgroundImageFix"/>
<feBlend mode="normal" in="SourceGraphic" in2="BackgroundImageFix" result="shape"/>
<feColorMatrix in="SourceAlpha" type="matrix" values="0 0 0 0 0 0 0 0 0 0 0 0 0 0 0 0 0 0 127 0" result="hardAlpha"/>
<feOffset dy="9"/>
<feComposite in2="hardAlpha" operator="arithmetic" k2="-1" k3="1"/>
<feColorMatrix type="matrix" values="0 0 0 0 0 0 0 0 0 0 0 0 0 0 0 0 0 0 0.15 0"/>
<feBlend mode="normal" in2="shape" result="effect1_innerShadow_42_526"/>
<feColorMatrix in="SourceAlpha" type="matrix" values="0 0 0 0 0 0 0 0 0 0 0 0 0 0 0 0 0 0 127 0" result="hardAlpha"/>
<feOffset dy="-8"/>
<feGaussianBlur stdDeviation="4.2"/>
<feComposite in2="hardAlpha" operator="arithmetic" k2="-1" k3="1"/>
<feColorMatrix type="matrix" values="0 0 0 0 0.792157 0 0 0 0 0.113725 0 0 0 0 0.227451 0 0 0 1 0"/>
<feBlend mode="normal" in2="effect1_innerShadow_42_526" result="effect2_innerShadow_42_526"/>
<feColorMatrix in="SourceAlpha" type="matrix" values="0 0 0 0 0 0 0 0 0 0 0 0 0 0 0 0 0 0 127 0" result="hardAlpha"/>
<feOffset dx="-18" dy="-5"/>
<feGaussianBlur stdDeviation="6"/>
<feComposite in2="hardAlpha" operator="arithmetic" k2="-1" k3="1"/>
<feColorMatrix type="matrix" values="0 0 0 0 1 0 0 0 0 0.72 0 0 0 0 0 0 0 0 0.18 0"/>
<feBlend mode="normal" in2="effect2_innerShadow_42_526" result="effect3_innerShadow_42_526"/>
</filter>
<filter id="filter1_d_42_526" x="27.3154" y="313.551" width="62.4014" height="61.3861" filterUnits="userSpaceOnUse" color-interpolation-filters="sRGB">
<feFlood flood-opacity="0" result="BackgroundImageFix"/>
<feColorMatrix in="SourceAlpha" type="matrix" values="0 0 0 0 0 0 0 0 0 0 0 0 0 0 0 0 0 0 127 0" result="hardAlpha"/>
<feOffset/>
<feGaussianBlur stdDeviation="10.2"/>
<feComposite in2="hardAlpha" operator="out"/>
<feColorMatrix type="matrix" values="0 0 0 0 1 0 0 0 0 0.321569 0 0 0 0 0.321569 0 0 0 0.51 0"/>
<feBlend mode="normal" in2="BackgroundImageFix" result="effect1_dropShadow_42_526"/>
<feBlend mode="normal" in="SourceGraphic" in2="effect1_dropShadow_42_526" result="shape"/>
</filter>
<filter id="filter2_d_42_526" x="24.1325" y="17.3695" width="77.3213" height="79.7214" filterUnits="userSpaceOnUse" color-interpolation-filters="sRGB">
<feFlood flood-opacity="0" result="BackgroundImageFix"/>
<feColorMatrix in="SourceAlpha" type="matrix" values="0 0 0 0 0 0 0 0 0 0 0 0 0 0 0 0 0 0 127 0" result="hardAlpha"/>
<feOffset dy="4"/>
<feGaussianBlur stdDeviation="0.8"/>
<feComposite in2="hardAlpha" operator="out"/>
<feColorMatrix type="matrix" values="0 0 0 0 0.570459 0 0 0 0 0 0 0 0 0 0 0 0 0 0.32 0"/>
<feBlend mode="normal" in2="BackgroundImageFix" result="effect1_dropShadow_42_526"/>
<feBlend mode="normal" in="SourceGraphic" in2="effect1_dropShadow_42_526" result="shape"/>
</filter>
<filter id="filter3_dii_42_526" x="21.7606" y="389.03" width="68.9474" height="69.4671" filterUnits="userSpaceOnUse" color-interpolation-filters="sRGB">
<feFlood flood-opacity="0" result="BackgroundImageFix"/>
<feColorMatrix in="SourceAlpha" type="matrix" values="0 0 0 0 0 0 0 0 0 0 0 0 0 0 0 0 0 0 127 0" result="hardAlpha"/>
<feOffset dx="3" dy="4"/>
<feComposite in2="hardAlpha" operator="out"/>
<feColorMatrix type="matrix" values="0 0 0 0 0 0 0 0 0 0 0 0 0 0 0 0 0 0 1 0"/>
<feBlend mode="normal" in2="BackgroundImageFix" result="effect1_dropShadow_42_526"/>
<feBlend mode="normal" in="SourceGraphic" in2="effect1_dropShadow_42_526" result="shape"/>
<feColorMatrix in="SourceAlpha" type="matrix" values="0 0 0 0 0 0 0 0 0 0 0 0 0 0 0 0 0 0 127 0" result="hardAlpha"/>
<feOffset dx="-4" dy="4"/>
<feGaussianBlur stdDeviation="9.5"/>
<feComposite in2="hardAlpha" operator="arithmetic" k2="-1" k3="1"/>
<feColorMatrix type="matrix" values="0 0 0 0 0.619759 0 0 0 0 0.619759 0 0 0 0 0.619759 0 0 0 1 0"/>
<feBlend mode="normal" in2="shape" result="effect2_innerShadow_42_526"/>
<feColorMatrix in="SourceAlpha" type="matrix" values="0 0 0 0 0 0 0 0 0 0 0 0 0 0 0 0 0 0 127 0" result="hardAlpha"/>
<feOffset dx="-3" dy="4"/>
<feComposite in2="hardAlpha" operator="arithmetic" k2="-1" k3="1"/>
<feColorMatrix type="matrix" values="0 0 0 0 1 0 0 0 0 1 0 0 0 0 1 0 0 0 0.25 0"/>
<feBlend mode="normal" in2="effect2_innerShadow_42_526" result="effect3_innerShadow_42_526"/>
</filter>
<filter id="filter4_dii_42_526" x="155.288" y="410.847" width="47.8336" height="44.8336" filterUnits="userSpaceOnUse" color-interpolation-filters="sRGB">
<feFlood flood-opacity="0" result="BackgroundImageFix"/>
<feColorMatrix in="SourceAlpha" type="matrix" values="0 0 0 0 0 0 0 0 0 0 0 0 0 0 0 0 0 0 127 0" result="hardAlpha"/>
<feOffset dx="3" dy="4"/>
<feComposite in2="hardAlpha" operator="out"/>
<feColorMatrix type="matrix" values="0 0 0 0 0 0 0 0 0 0 0 0 0 0 0 0 0 0 1 0"/>
<feBlend mode="normal" in2="BackgroundImageFix" result="effect1_dropShadow_42_526"/>
<feBlend mode="normal" in="SourceGraphic" in2="effect1_dropShadow_42_526" result="shape"/>
<feColorMatrix in="SourceAlpha" type="matrix" values="0 0 0 0 0 0 0 0 0 0 0 0 0 0 0 0 0 0 127 0" result="hardAlpha"/>
<feOffset dx="-4" dy="4"/>
<feGaussianBlur stdDeviation="9.5"/>
<feComposite in2="hardAlpha" operator="arithmetic" k2="-1" k3="1"/>
<feColorMatrix type="matrix" values="0 0 0 0 0.619759 0 0 0 0 0.619759 0 0 0 0 0.619759 0 0 0 1 0"/>
<feBlend mode="normal" in2="shape" result="effect2_innerShadow_42_526"/>
<feColorMatrix in="SourceAlpha" type="matrix" values="0 0 0 0 0 0 0 0 0 0 0 0 0 0 0 0 0 0 127 0" result="hardAlpha"/>
<feOffset dx="-3" dy="4"/>
<feComposite in2="hardAlpha" operator="arithmetic" k2="-1" k3="1"/>
<feColorMatrix type="matrix" values="0 0 0 0 1 0 0 0 0 1 0 0 0 0 1 0 0 0 0.25 0"/>
<feBlend mode="normal" in2="effect2_innerShadow_42_526" result="effect3_innerShadow_42_526"/>
</filter>
<filter id="filter5_dii_42_526" x="219.821" y="391.847" width="47.8336" height="44.8336" filterUnits="userSpaceOnUse" color-interpolation-filters="sRGB">
<feFlood flood-opacity="0" result="BackgroundImageFix"/>
<feColorMatrix in="SourceAlpha" type="matrix" values="0 0 0 0 0 0 0 0 0 0 0 0 0 0 0 0 0 0 127 0" result="hardAlpha"/>
<feOffset dx="3" dy="4"/>
<feComposite in2="hardAlpha" operator="out"/>
<feColorMatrix type="matrix" values="0 0 0 0 0 0 0 0 0 0 0 0 0 0 0 0 0 0 1 0"/>
<feBlend mode="normal" in2="BackgroundImageFix" result="effect1_dropShadow_42_526"/>
<feBlend mode="normal" in="SourceGraphic" in2="effect1_dropShadow_42_526" result="shape"/>
<feColorMatrix in="SourceAlpha" type="matrix" values="0 0 0 0 0 0 0 0 0 0 0 0 0 0 0 0 0 0 127 0" result="hardAlpha"/>
<feOffset dx="-4" dy="4"/>
<feGaussianBlur stdDeviation="9.5"/>
<feComposite in2="hardAlpha" operator="arithmetic" k2="-1" k3="1"/>
<feColorMatrix type="matrix" values="0 0 0 0 0.619759 0 0 0 0 0.619759 0 0 0 0 0.619759 0 0 0 1 0"/>
<feBlend mode="normal" in2="shape" result="effect2_innerShadow_42_526"/>
<feColorMatrix in="SourceAlpha" type="matrix" values="0 0 0 0 0 0 0 0 0 0 0 0 0 0 0 0 0 0 127 0" result="hardAlpha"/>
<feOffset dx="-3" dy="4"/>
<feComposite in2="hardAlpha" operator="arithmetic" k2="-1" k3="1"/>
<feColorMatrix type="matrix" values="0 0 0 0 1 0 0 0 0 1 0 0 0 0 1 0 0 0 0.25 0"/>
<feBlend mode="normal" in2="effect2_innerShadow_42_526" result="effect3_innerShadow_42_526"/>
</filter>
<filter id="filter6_ddi_42_526" x="16.0606" y="464.331" width="219.144" height="57.4" filterUnits="userSpaceOnUse" color-interpolation-filters="sRGB">
<feFlood flood-opacity="0" result="BackgroundImageFix"/>
<feColorMatrix in="SourceAlpha" type="matrix" values="0 0 0 0 0 0 0 0 0 0 0 0 0 0 0 0 0 0 127 0" result="hardAlpha"/>
<feOffset dy="3"/>
<feGaussianBlur stdDeviation="3.85"/>
<feComposite in2="hardAlpha" operator="out"/>
<feColorMatrix type="matrix" values="0 0 0 0 0.808577 0 0 0 0 0.104375 0 0 0 0 0.22123 0 0 0 0.44 0"/>
<feBlend mode="normal" in2="BackgroundImageFix" result="effect1_dropShadow_42_526"/>
<feColorMatrix in="SourceAlpha" type="matrix" values="0 0 0 0 0 0 0 0 0 0 0 0 0 0 0 0 0 0 127 0" result="hardAlpha"/>
<feOffset dy="3"/>
<feComposite in2="hardAlpha" operator="out"/>
<feColorMatrix type="matrix" values="0 0 0 0 0 0 0 0 0 0 0 0 0 0 0 0 0 0 0.11 0"/>
<feBlend mode="normal" in2="effect1_dropShadow_42_526" result="effect2_dropShadow_42_526"/>
<feBlend mode="normal" in="SourceGraphic" in2="effect2_dropShadow_42_526" result="shape"/>
<feColorMatrix in="SourceAlpha" type="matrix" values="0 0 0 0 0 0 0 0 0 0 0 0 0 0 0 0 0 0 127 0" result="hardAlpha"/>
<feOffset dx="17" dy="-11"/>
<feComposite in2="hardAlpha" operator="arithmetic" k2="-1" k3="1"/>
<feColorMatrix type="matrix" values="0 0 0 0 1 0 0 0 0 1 0 0 0 0 1 0 0 0 0.09 0"/>
<feBlend mode="normal" in2="shape" result="effect3_innerShadow_42_526"/>
</filter>
<linearGradient id="paint0_linear_42_526" x1="147.305" y1="2" x2="147.305" y2="532.044" gradientUnits="userSpaceOnUse">
<stop stop-color="#DF1234"/>
<stop offset="0.725" stop-color="#EE2244"/>
<stop offset="0.955" stop-color="#FF1940"/>
</linearGradient>
<radialGradient id="paint1_radial_42_526" cx="0" cy="0" r="1" gradientUnits="userSpaceOnUse" gradientTransform="translate(55.0411 340.753) rotate(75.8501) scale(14.215 14.8343)">
<stop stop-color="#FFB8B8"/>
<stop offset="0.455" stop-color="#FF5252"/>
</radialGradient>
<radialGradient id="paint2_radial_42_526" cx="0" cy="0" r="1" gradientUnits="userSpaceOnUse" gradientTransform="translate(135.518 116.488) rotate(75.8501) scale(5.33063 5.56286)">
<stop stop-color="#FFB8B8"/>
<stop offset="0.455" stop-color="#FF5252"/>
</radialGradient>
<radialGradient id="paint3_radial_42_526" cx="0" cy="0" r="1" gradientUnits="userSpaceOnUse" gradientTransform="translate(154.419 116.488) rotate(75.8501) scale(5.33063 5.56286)">
<stop stop-color="#FFB8B8"/>
<stop offset="0.455" stop-color="#FF5252"/>
</radialGradient>
<radialGradient id="paint4_radial_42_526" cx="0" cy="0" r="1" gradientUnits="userSpaceOnUse" gradientTransform="translate(53.5939 44.7162) rotate(76.4902) scale(40.7559)">
<stop stop-color="white"/>
<stop offset="0.205" stop-color="#B8DAFF"/>
<stop offset="0.715" stop-color="#2C91FF"/>
</radialGradient>
<radialGradient id="paint5_radial_42_526" cx="0" cy="0" r="1" gradientUnits="userSpaceOnUse" gradientTransform="translate(116.45 32.0286) rotate(76.4902) scale(11.634)">
<stop stop-color="#FFB8B8"/>
<stop offset="0.455" stop-color="#FF5252"/>
</radialGradient>
<radialGradient id="paint6_radial_42_526" cx="0" cy="0" r="1" gradientUnits="userSpaceOnUse" gradientTransform="translate(141.344 32.0286) rotate(76.4902) scale(11.634)">
<stop stop-color="#FEFFB8"/>
<stop offset="0.455" stop-color="#FFD952"/>
</radialGradient>
<radialGradient id="paint7_radial_42_526" cx="0" cy="0" r="1" gradientUnits="userSpaceOnUse" gradientTransform="translate(166.239 32.0286) rotate(76.4902) scale(11.634)">
<stop stop-color="#C6FFB8"/>
<stop offset="0.455" stop-color="#52FF6E"/>
</radialGradient>
<linearGradient id="paint8_linear_42_526" x1="56.7342" y1="389.03" x2="56.7342" y2="454.497" gradientUnits="userSpaceOnUse">
<stop offset="0.58" stop-color="#787878"/>
<stop offset="0.885" stop-color="#575757"/>
<stop offset="1" stop-color="#404040"/>
</linearGradient>
<radialGradient id="paint9_radial_42_526" cx="0" cy="0" r="1" gradientUnits="userSpaceOnUse" gradientTransform="translate(57.1256 421.283) rotate(90) scale(8.79934)">
<stop stop-color="#757575"/>
<stop offset="1"/>
</radialGradient>
<linearGradient id="paint10_linear_42_526" x1="179.705" y1="410.849" x2="179.705" y2="451.678" gradientUnits="userSpaceOnUse">
<stop offset="0.58" stop-color="#787878"/>
<stop offset="0.885" stop-color="#575757"/>
<stop offset="1" stop-color="#404040"/>
</linearGradient>
<linearGradient id="paint11_linear_42_526" x1="244.238" y1="391.849" x2="244.238" y2="432.678" gradientUnits="userSpaceOnUse">
<stop offset="0.58" stop-color="#787878"/>
<stop offset="0.885" stop-color="#575757"/>
<stop offset="1" stop-color="#404040"/>
</linearGradient>
<radialGradient id="paint12_radial_42_526" cx="0" cy="0" r="1" gradientUnits="userSpaceOnUse" gradientTransform="translate(256.766 516.165) rotate(45.4947) scale(10.3272 22.729)">
<stop stop-color="#FFB8B8"/>
<stop offset="0.815" stop-color="#FF2121"/>
</radialGradient>
<radialGradient id="paint13_radial_42_526" cx="0" cy="0" r="1" gradientUnits="userSpaceOnUse" gradientTransform="translate(275.766 516.496) rotate(47.982) scale(10.8149 23.6771)">
<stop stop-color="#57FFF4"/>
<stop offset="0.815" stop-color="#00BBAF"/>
</radialGradient>
</defs>
</svg>
