<svg width="258" height="292" viewBox="0 0 258 292" fill="none" xmlns="http://www.w3.org/2000/svg">
<path d="M18.6698 276.01L18.6908 276.028L18.7127 276.045L33.0302 287.062C36.1772 289.484 40.0367 290.797 44.0076 290.797H238.588C248.529 290.797 256.588 282.738 256.588 272.797V19.2352C256.588 9.29411 248.529 1.23523 238.588 1.23523H111.752C106.771 1.23523 102.013 3.29891 98.6096 6.93531L87.7601 18.5275C84.7349 21.7599 80.5056 23.5942 76.0784 23.5942H19.4465C9.50538 23.5942 1.4465 31.6531 1.4465 41.5943V252.916C1.4465 258.154 3.72778 263.132 7.69517 266.551L18.6698 276.01Z" fill="#D8DBD0" stroke="black" stroke-width="2"/>
</svg>
